<svg id="visual" viewBox="0 0 960 540" width="960" height="540" xmlns="http://www.w3.org/2000/svg" xmlns:xlink="http://www.w3.org/1999/xlink" version="1.1"><path d="M0 71L14.5 64.7C29 58.3 58 45.7 87.2 40.3C116.3 35 145.7 37 174.8 47C204 57 233 75 262 76.8C291 78.7 320 64.3 349 64.3C378 64.3 407 78.7 436.2 82.2C465.3 85.7 494.7 78.3 523.8 72C553 65.7 582 60.3 611 58.5C640 56.7 669 58.3 698 55.7C727 53 756 46 785.2 46C814.3 46 843.7 53 872.8 55.7C902 58.3 931 56.7 945.5 55.8L960 55L960 0L945.5 0C931 0 902 0 872.8 0C843.7 0 814.3 0 785.2 0C756 0 727 0 698 0C669 0 640 0 611 0C582 0 553 0 523.8 0C494.7 0 465.3 0 436.2 0C407 0 378 0 349 0C320 0 291 0 262 0C233 0 204 0 174.8 0C145.7 0 116.3 0 87.2 0C58 0 29 0 14.5 0L0 0Z" fill="#6198ff"></path><path d="M0 185L14.5 177.7C29 170.3 58 155.7 87.2 143C116.3 130.3 145.7 119.7 174.8 123.3C204 127 233 145 262 157.7C291 170.3 320 177.7 349 176.8C378 176 407 167 436.2 167C465.3 167 494.7 176 523.8 177.7C553 179.3 582 173.7 611 178.2C640 182.7 669 197.3 698 189.3C727 181.3 756 150.7 785.2 132.7C814.3 114.7 843.7 109.3 872.8 112C902 114.7 931 125.3 945.5 130.7L960 136L960 53L945.5 53.8C931 54.7 902 56.3 872.8 53.7C843.7 51 814.3 44 785.2 44C756 44 727 51 698 53.7C669 56.3 640 54.7 611 56.5C582 58.3 553 63.7 523.8 70C494.7 76.3 465.3 83.7 436.2 80.2C407 76.7 378 62.3 349 62.3C320 62.3 291 76.7 262 74.8C233 73 204 55 174.8 45C145.7 35 116.3 33 87.2 38.3C58 43.7 29 56.3 14.5 62.7L0 69Z" fill="#3c80ff"></path><path d="M0 233L14.5 226.7C29 220.3 58 207.7 87.2 205C116.3 202.3 145.7 209.7 174.8 219.7C204 229.7 233 242.3 262 247.7C291 253 320 251 349 247.3C378 243.7 407 238.3 436.2 234.8C465.3 231.3 494.7 229.7 523.8 235.2C553 240.7 582 253.3 611 257.8C640 262.3 669 258.7 698 240.7C727 222.7 756 190.3 785.2 183.2C814.3 176 843.7 194 872.8 201.2C902 208.3 931 204.7 945.5 202.8L960 201L960 134L945.5 128.7C931 123.3 902 112.7 872.8 110C843.7 107.3 814.3 112.7 785.2 130.7C756 148.7 727 179.3 698 187.3C669 195.3 640 180.7 611 176.2C582 171.7 553 177.3 523.8 175.7C494.7 174 465.3 165 436.2 165C407 165 378 174 349 174.8C320 175.7 291 168.3 262 155.7C233 143 204 125 174.8 121.3C145.7 117.7 116.3 128.3 87.2 141C58 153.7 29 168.3 14.5 175.7L0 183Z" fill="#0066ff"></path><path d="M0 314L14.5 319.5C29 325 58 336 87.2 351.3C116.3 366.7 145.7 386.3 174.8 397C204 407.7 233 409.3 262 398.5C291 387.7 320 364.3 349 353.7C378 343 407 345 436.2 351.3C465.3 357.7 494.7 368.3 523.8 379C553 389.7 582 400.3 611 410.2C640 420 669 429 698 417.3C727 405.7 756 373.3 785.2 371.7C814.3 370 843.7 399 872.8 395.5C902 392 931 356 945.5 338L960 320L960 199L945.5 200.8C931 202.7 902 206.3 872.8 199.2C843.7 192 814.3 174 785.2 181.2C756 188.3 727 220.7 698 238.7C669 256.7 640 260.3 611 255.8C582 251.3 553 238.7 523.8 233.2C494.7 227.7 465.3 229.3 436.2 232.8C407 236.3 378 241.7 349 245.3C320 249 291 251 262 245.7C233 240.3 204 227.7 174.8 217.7C145.7 207.7 116.3 200.3 87.2 203C58 205.7 29 218.3 14.5 224.7L0 231Z" fill="#0059dd"></path><path d="M0 541L14.5 541C29 541 58 541 87.2 541C116.3 541 145.7 541 174.8 541C204 541 233 541 262 541C291 541 320 541 349 541C378 541 407 541 436.2 541C465.3 541 494.7 541 523.8 541C553 541 582 541 611 541C640 541 669 541 698 541C727 541 756 541 785.2 541C814.3 541 843.7 541 872.8 541C902 541 931 541 945.5 541L960 541L960 318L945.5 336C931 354 902 390 872.8 393.5C843.7 397 814.3 368 785.2 369.7C756 371.3 727 403.7 698 415.3C669 427 640 418 611 408.2C582 398.3 553 387.7 523.8 377C494.7 366.3 465.3 355.7 436.2 349.3C407 343 378 341 349 351.7C320 362.3 291 385.7 262 396.5C233 407.3 204 405.7 174.8 395C145.7 384.3 116.3 364.7 87.2 349.3C58 334 29 323 14.5 317.5L0 312Z" fill="#004cbb"></path></svg>